# xmcd CD database file generated by freedbAccess_ocx
#
# Track frame offsets:
#       150
#       12837
#       29580
#       43332
#       62252
#       78752
#       97075
#       117515
#       137010
#       156072
#       172307
#
# Disc length: 2478 seconds
#
# Revision: 0
# Processed by: cddbd v1.5PL3 Copyright (c) Steve Scherf et al.
# Submitted via: CDnGo 2.09
#
DISCID=9009ac0b
DTITLE=Anthony Redfox - Golden Instruments
DYEAR=1900
DGENRE=Unknown
TTITLE0=Desperado
TTITLE1=I wanna be in Boston
TTITLE2=Bernadete
TTITLE3=Bright light
TTITLE4=Lilita
TTITLE5=Opus
TTITLE6=Mexican sunset
TTITLE7=You got to
TTITLE8=Sir Redfox Blues
TTITLE9=Funky Horn
TTITLE10=Winer Waltz
EXTD=
EXTT0=
EXTT1=
EXTT2=
EXTT3=
EXTT4=
EXTT5=
EXTT6=
EXTT7=
EXTT8=
EXTT9=
EXTT10=
PLAYORDER=
